<?xml version="1.0" encoding="UTF-8"?>
<svg id="Layer_2" data-name="Layer 2" xmlns="http://www.w3.org/2000/svg" viewBox="0 0 1469.74 423.39">
  <defs>
    <style>
      .cls-1 {
        fill: none;
        stroke: #fff;
        stroke-miterlimit: 10;
        stroke-width: 7px;
      }
    </style>
  </defs>
  <g id="Layer_3" data-name="Layer 3">
    <g>
      <path class="cls-1" d="M598.56,215.86l-.06,.18c-.02-.06-.03-.12-.05-.18h.11Z"/>
      <path class="cls-1" d="M1464.79,256.1c-18.79,18.79-43.47,28.19-68.15,28.19-10.03,0-20.06-1.55-29.69-4.65-.66-.21-1.33-.44-2-.66-.63-.23-1.26-.45-1.9-.69-.54-.2-1.08-.39-1.61-.62-.05-.02-.09-.03-.14-.05-.71-.29-1.43-.57-2.12-.87-.72-.3-1.45-.62-2.15-.93-.71-.33-1.42-.66-2.12-.99-.6-.29-1.2-.59-1.79-.89-.05-.03-.11-.06-.17-.08-.56-.3-1.13-.59-1.69-.89-8.39-4.5-16.04-10.21-22.72-16.9-5.09-5.09-9.62-10.75-13.48-16.88-6.1,12.12-11.87,25.43-17.2,40.02h-42.7l58.59-188.92h42.15l-13.36,43.47c34.48-30.25,72.49-47.04,107.02-47.28l.3,42.16c-28.01,.2-69.94,17.06-107.05,65.7,2.12,17.98,13.07,33.29,28.38,41.47,.03,.02,.05,.02,.08,.03,1.01,.54,2.03,1.05,3.09,1.52,.39,.18,.8,.36,1.2,.53,.38,.17,.75,.32,1.13,.47,.66,.26,1.34,.51,2,.74,1.23,.45,2.48,.84,3.76,1.17,18.13,4.88,38.32,.21,52.52-13.99l29.81,29.81Z"/>
      <g>
        <path class="cls-1" d="M598.56,215.86l-.06,.18c-.02-.06-.03-.12-.05-.18h.11Z"/>
        <path class="cls-1" d="M661.59,280.37c9.52,3.01,19.41,4.52,29.29,4.52"/>
      </g>
      <path class="cls-1" d="M1074.8,47.69c0,13.46-10.95,24.42-24.42,24.42s-24.42-10.96-24.42-24.42,10.95-24.44,24.42-24.44,24.42,10.96,24.42,24.44Z"/>
      <path class="cls-1" d="M413.95,3.5l-60.47,214.97c-10.42,29.26-22.6,50.01-38.32,65.31-19.05,18.54-43.05,28.08-70.14,28.08-5.59,0-11.29-.41-17.12-1.22-21.65-3.03-41.85-13.48-56.53-28.79-20.18,19.06-45.72,29.89-73.17,29.89-5.07,0-10.19-.38-15.37-1.13-26.61-3.87-50.02-17.87-64.25-38.4C4.65,252.15,.26,227.86,5.87,201.98L62.93,3.5h61.21l-59.4,211.23c-2.02,9.29-.89,17.08,3.33,23.16,4.74,6.85,13.3,11.64,23.45,13.12,30.6,4.47,52-22.14,59.61-50.47h.02c.03-.14,.06-.27,.11-.41L201.36,25.29h61.2l-53.26,190.89c-.03,.14-.08,.27-.12,.41-.11,.35-.2,.69-.27,1.02-1.79,7.06-.95,12.95,2.62,18.42,4.94,7.57,14.86,13.58,24.73,14.95,33.1,4.65,47.67-16.73,60.49-52.72L352.74,3.5h61.21Z"/>
      <path class="cls-1" d="M151.24,200.13c-.05,.14-.08,.27-.11,.41h-.02l.12-.41Z"/>
      <path class="cls-1" d="M690.88,284.89c19.24,0,38.49-5.71,54.95-17.14,9.35,9.11,22.01,15.24,36.06,17.21,3.39,.48,6.75,.71,10.06,.71,17.59,0,34-6.57,47.13-18.19,9.64,9.31,22.53,15.63,36.4,17.5,4.04,.54,7.94,.81,11.73,.81,32.5,0,60.95-20.05,72.41-59.58l37.52-135.53h-42.23l-37.86,120.95c-10.71,29.06-20.75,33.62-35.91,31.58-6.02-.83-12.18-4.43-15-8.76-1.85-2.85-2.17-5.8-1.05-9.58,.02-.09,.05-.2,.08-.29l32.72-113h-42.92l-31.83,101.39-.09,.3c-.15,.48-.29,.98-.42,1.46-5.03,16.26-16.49,31.08-34.84,28.49-6.2-.87-10.01-3.73-12.72-7.65-2.18-3.16-2.71-7.09-1.6-12.03l38.5-132.86h-42.44l-38.7,123.63c-.95,4.25-1.48,8.48-1.55,12.63l-.05-.05c-11.23,11.23-26.2,16.5-40.93,15.8-.86-.05-1.73-.11-2.59-.18-.87-.08-1.73-.18-2.59-.32-.44-.06-.86-.14-1.3-.2-.86-.15-1.72-.32-2.56-.5-.42-.09-.86-.2-1.28-.3-.84-.21-1.69-.44-2.53-.68-.42-.12-.83-.24-1.25-.39-.57-.18-1.14-.38-1.72-.59-.48-.17-.98-.35-1.46-.54-.59-.23-1.17-.47-1.75-.72-.14-.06-.27-.12-.41-.18-.62-.29-1.23-.57-1.85-.87-.08-.03-.14-.08-.21-.11-9.49-4.71-17.39-12.15-22.74-21.26h18.78c34-.65,61.45-28.5,61.45-62.66s-28.11-62.67-62.67-62.67v.02h-66.33l-25.79,83.17h-11.65c-5.13-.26-11.9-.62-17.68-1.02-.78-.06-1.58-.11-2.38-.17l4.13-17.27c5.03-18.57,3.67-36.15-6.54-49.51-7.68-10.01-22.83-21.95-51.51-21.95-59.71,0-74.69,42.09-81.9,62.31l-36.35,133.11h39.3c.36-1.26,.72-2.51,1.1-3.72,9.65-31.46,26.8-47.66,51.98-56.3,7.51-2.57,15.51-4.16,23.75-5.04l-19.52,65.07h40.81l21.28-65.32c4.37,.26,8.69,.56,12.9,.86,6.01,.42,7.26,.84,12.81,1.11h6.38l-19.65,63.35h42.15l19.59-63.17c-.02-.06-.03-.12-.05-.18h.11l-.06,.18c4.64,15.55,13.1,29.47,24.29,40.63,9.28,9.28,20.4,16.67,32.8,21.56,.99,.39,1.99,.77,3,1.11,.98,.36,1.97,.69,2.97,1.01,.02,0,.03,.02,.05,.02m-158.88-136.12l-8.06,26.83c-16.67,.47-33.9,2.57-50.34,8.22-3.22,1.1-6.37,2.38-9.41,3.82l6.78-22.87c8.3-23.32,14.02-34.3,37.83-34.3,12.75,0,19.74,1.97,22.38,5.42,2.03,2.65,2.33,7.33,.83,12.87Zm108.93,29.47l12.72-41.02h37.25c11.31,0,20.51,9.2,20.51,20.51s-9.2,20.51-20.51,20.51h-49.98Z"/>
      <path class="cls-1" d="M1259.47,197.57l-.12,.86c-3.66,25.63-14.2,47.39-30.51,62.91-18.01,17.17-33.46,24.56-62.73,24.56-.66,0-1.26,0-1.84,.02-.53,0-1.02,.01-1.54,.01-.86,0-1.73-.01-2.79-.08-26.73-1.22-49.01-8.09-64.25-23.75-14.29,15.36-33.14,23.81-53.22,23.81-3.31,0-6.72-.24-10.15-.71-18.13-2.56-34.6-11.55-43.55-25.73-9.27-14.69-11.69-29.14-6.66-45.9l35.32-122.89h45.59l-36.94,133.07c-1.01,4.52-.3,8.1,1.61,10.87,2.94,4.23,5.32,6.57,10.71,7.33,11.88,1.67,28.28-4.64,35.49-27.87-3.12-28.22,6.07-60.11,24.6-85.36,23.63-32.15,58.73-48.34,93.89-43.31,38.07,6.22,59.9,29.23,59.9,63.12v.75h-43.67v-.75c0-5.63,0-16.11-22.86-19.97l-.38-.05c-8.91-1.19-31.79-1.04-51.69,26.08-15.93,21.67-21.28,50.44-12.69,68.41,6.28,13.16,20.01,20.36,40.81,21.26,18.03,.78,25.88-4.07,36.9-14.56,9.37-8.9,15.07-19.5,16.97-31.52l.11-.63h43.67Z"/>
    </g>
    <path class="cls-1" d="M475.29,415.59c-6.39,3.34-6.89,3.29-10.12-1.67-6.16-9.46-12.22-18.99-18.3-28.46h-16.77c-.17,1.99-.43,3.81-.48,5.64-.17,6.83-.26,13.66-.41,20.48-.03,1.49,.26,3.27-.45,4.38-.77,1.2-2.49,2.34-3.85,2.42-.99,.06-2.51-1.46-3.02-2.61-.56-1.27-.3-2.93-.27-4.42,.42-21.76,.83-43.52,1.3-65.28,.11-5.05,1.09-6.04,5.98-6.17,8.53-.21,17.05-.39,25.58-.43,8.13-.04,17.38,9.17,18.6,18.39,1.12,8.51-1.66,15.55-8.21,21.05-2.59,2.18-5.35,4.15-8.51,6.58,6.32,10.04,12.49,19.86,18.94,30.09Zm-44.86-37.86c6.32,0,12.45-.07,18.57,.02,7.64,.11,12.33-4.32,15.38-10.53,4.01-8.17-.8-18.61-9.27-19.45-7.96-.78-16.06-.17-24.68-.17v30.13Z"/>
    <path class="cls-1" d="M1075.79,419.28c-3.61,0-5.96,.08-8.3-.02-4.97-.21-6.25-1.54-6.55-6.62-.05-.85-.02-1.71-.02-2.56-.03-21.33-.06-42.65-.07-63.98,0-6.87,.69-7.7,7.74-7.64,5.71,.05,11.56-.09,17.11,1.03,16.22,3.27,26.85,14.63,28.8,30.93,2.25,18.83-4.77,33.7-20.42,44.54-6,4.15-12.64,4.7-18.29,4.31Zm-7-8.14c11.8,1.34,15.58,.81,21.55-2.86,13.1-8.06,20.04-25.93,15.95-40.8-3.86-14.03-15.82-24.15-37.5-20.47v64.13Z"/>
    <path class="cls-1" d="M1223.74,382.45c-.26,9.5-3.57,20.47-12.75,29.04-9.81,9.16-23.02,10.11-34.03,2.5-6.54-4.52-10.88-10.73-13.61-18.13-5.26-14.23-4.42-28.05,3.04-41.3,1.44-2.56,3.38-4.95,5.48-7.03,12.74-12.61,30.65-11.48,41.93,2.51,6.58,8.17,10.03,18.45,9.94,32.41Zm-7.52,1.05c.07-13.18-2.39-21.85-8.76-29.06-9.78-11.08-23.96-10.41-32.82,1.42-9.83,13.12-9.21,34.59,1.37,47.11,9.84,11.64,24.96,11.02,33.68-1.46,4.53-6.49,6.54-13.8,6.54-18Z"/>
    <path class="cls-1" d="M1036.83,373.05c0,7.47-.49,14.98,.12,22.4,.77,9.3-4.03,15.35-11.27,19-10.66,5.38-21.96,5.05-32.59-.63-5.98-3.19-9.36-8.45-9.32-15.63,.09-16.64,.02-33.29,0-49.93,0-.43-.02-.85,0-1.28,.15-4.49,1.2-6.3,3.85-6.03,3.53,.35,3.48,3.13,3.49,5.75,.03,8.1,.05,16.2,.09,24.31,.04,8.53,.21,17.06,.09,25.58-.08,6.06,3.02,9.54,8.38,11.4,7.37,2.55,14.68,2.2,21.79-.99,5.35-2.4,8.02-6.17,7.89-12.49-.32-15.36-.03-30.73,.02-46.1,0-1.28-.06-2.57,.06-3.84,.22-2.39,.48-4.99,3.7-4.99,2.99,0,3.9,2.06,3.92,4.75,.03,2.55,.22,5.1,.23,7.65,.03,7.03,.01,14.06,.01,21.09-.16,0-.32,0-.48,0Z"/>
    <path class="cls-1" d="M779.17,347.37v27.84c5.44,0,10.69,0,15.94,0,2.13,0,4.26,0,6.4,.08,2.2,.07,3.83,1.18,3.91,3.4,.1,2.52-1.55,3.86-4.04,3.99-1.91,.1-3.84,.08-5.76,.09-5.29,0-10.58,0-16.3,0v26.99c1.58,.16,3.2,.46,4.81,.46,8.32-.02,16.63-.13,24.95-.2,1.49-.01,2.99-.06,4.47,.09,2.15,.22,4.02,1.52,3.57,3.61-.31,1.47-2.14,2.8-3.57,3.79-.74,.51-2.07,.19-3.14,.21-10.66,.19-21.32,.41-31.98,.54-5.98,.07-6.99-.88-7.01-7.07-.08-21.77-.1-43.53-.05-65.3,.02-6.33,.53-6.41,7.18-6.27,9.8,.21,19.61,.02,29.42,.04,1.91,0,4-.28,5.69,.38,1.3,.5,2.88,2.25,2.92,3.49,.04,1.15-1.59,2.92-2.87,3.41-1.7,.65-3.77,.41-5.69,.42-9.36,.03-18.71,.01-28.88,.01Z"/>
    <path class="cls-1" d="M502.79,410.37c7.6,0,14.79,.03,21.97-.01,2.98-.02,5.97-.26,8.95-.27,1.25,0,2.87-.06,3.67,.64,1.11,.99,2.14,2.66,2.17,4.06,.01,.88-1.78,2.41-2.93,2.58-3.36,.49-6.79,.52-10.19,.6-8.32,.18-16.64,.39-24.96,.38-5.2,0-6.4-1.15-6.46-6.47-.24-22.21-.37-44.42-.43-66.64-.01-4.69,.99-5.62,5.7-5.67,10.88-.1,21.77-.03,32.65,0,1.05,0,2.37-.08,3.1,.48,1.24,.95,2.93,2.4,2.9,3.6-.03,1.19-1.75,2.86-3.09,3.37-1.71,.65-3.78,.44-5.69,.44-7.25,.02-14.51-.06-21.76-.04-1.86,0-3.72,.21-5.88,.34v28.46c5.23,0,10.07,0,14.92,0,1.92,0,3.84,0,5.76,.01,2.49,.02,4.82,.39,5.18,3.49,.28,2.44-1.52,3.85-5.31,4.12-1.91,.14-3.84,.02-5.76,.03-4.05,.01-8.11,.02-12.16,.06-.62,0-1.23,.21-2.34,.41v26.02Z"/>
    <path class="cls-1" d="M878.73,419.27c-8.56-.04-15.86-3.07-21.32-9.74-1.85-2.26-3.25-5.02-4.34-7.75-1.47-3.7-.67-6.47,1.53-7.32,2.18-.84,3.86,.58,5.54,4.7,3.68,9.04,11.88,13.87,21.39,12.5,5.43-.78,9.68-3.4,11.73-8.69,2.03-5.23-.09-9.6-3.44-13.5-3.81-4.44-9.08-6.23-14.53-7.4-10.07-2.16-17.81-11.85-17.55-22.26,.28-11.15,7.91-19.85,18.54-21.15,10.18-1.24,20.86,5.65,23.87,15.49,.42,1.39,.82,3.09,.39,4.35-.4,1.15-1.82,2.35-3.03,2.68-.87,.24-2.4-.64-3.13-1.47-.79-.9-.8-2.45-1.5-3.48-1.54-2.26-2.97-4.77-5.02-6.48-5.72-4.79-13.19-4.65-18.09-.07-5.28,4.93-5.92,13.16-1.44,19.21,2.95,3.97,7.06,6.02,11.82,6.94,6.3,1.22,11.66,4.25,15.77,9.12,5.27,6.26,7.62,13.36,4.34,21.37-3.22,7.87-9.52,11.76-17.69,12.92-1.25,.18-2.56,.02-3.84,.02Z"/>
    <path class="cls-1" d="M589.02,392.77h-24.74c-2.06,6.35-4.07,12.6-6.14,18.83-.6,1.81-1.02,3.88-2.2,5.25-.9,1.04-2.95,1.7-4.33,1.48-.83-.13-1.88-2.24-1.89-3.48-.02-1.85,.69-3.75,1.27-5.57,6.68-21.16,13.38-42.32,20.14-63.46,.88-2.76,1.33-6.35,5.24-6.33,4.01,.02,4.15,3.84,5.05,6.5,7.07,21.04,14.02,42.11,20.98,63.19,.53,1.61,1.24,3.34,1.08,4.93-.13,1.22-1.29,2.94-2.37,3.29-1.05,.34-2.96-.43-3.78-1.35-1.07-1.2-1.53-3-2.07-4.6-2.06-6.05-4.05-12.12-6.23-18.67Zm-12.02-36.27c-.45-.06-.9-.12-1.34-.18-2.92,9.4-5.84,18.79-9.07,29.15,7.18-.58,13.21,.27,19.68-1.05-3.27-9.84-6.27-18.88-9.27-27.92Z"/>
    <path class="cls-1" d="M349.82,379.96c-.01-11.07,2.12-20.99,8.17-29.72,1.8-2.6,3.98-5.06,6.42-7.06,8.37-6.87,18.39-6.89,27.07-.4,5.67,4.24,9.12,10.06,11.77,16.45,.32,.78,.83,1.82,.56,2.42-.65,1.44-1.47,3.39-2.68,3.8-1.13,.38-3.2-.6-4.19-1.63-1.11-1.15-1.21-3.21-2.19-4.56-2.73-3.74-5.19-7.92-8.68-10.82-5.25-4.37-11.84-3.89-16.98,.65-2.5,2.22-4.87,4.95-6.32,7.93-7.07,14.5-7.22,29.21-.09,43.77,3.18,6.48,8.03,11.44,15.71,11.36,7.41-.07,11.82-5.22,15.23-11.21,1.05-1.85,1.72-3.92,2.79-5.76,1.08-1.86,2.84-2.71,4.91-1.69,1.97,.97,2.74,2.73,1.92,4.83-3.55,9.05-8.78,16.74-18.33,20.22-8.48,3.09-16.01,.69-22.37-5.35-7.81-7.42-11.11-17.01-12.41-27.43-.26-2.11-.23-4.26-.3-5.81Z"/>
    <path class="cls-1" d="M729.76,400.78c1.49-3.92,3.02-7.83,4.46-11.78,4.91-13.41,9.77-26.85,14.69-40.26,.73-2,1.33-4.19,2.63-5.77,.84-1.03,3.16-1.85,4.24-1.39,1.16,.49,2.01,2.51,2.31,3.99,.23,1.1-.58,2.44-1.02,3.64-7.63,20.81-15.28,41.62-22.92,62.42-.22,.6-.45,1.2-.66,1.8-.86,2.52-1.93,5.03-5.08,4.91-2.95-.11-3.45-2.82-4.17-5.01-7.41-22.24-14.8-44.5-22.19-66.75-.27-.81-.6-1.61-.77-2.43-.42-2.1,.11-4.32,2.2-4.64,1.48-.23,3.59,.87,4.73,2.04,1.09,1.11,1.32,3.08,1.86,4.7,5.33,15.97,10.64,31.95,15.97,47.92,.74,2.21,1.6,4.37,2.41,6.55,.43,.02,.86,.03,1.29,.05Z"/>
    <path class="cls-1" d="M945.96,349.47c0,2.69,0,4.79,0,6.88-.03,17.51-.07,35.01-.11,52.52,0,1.49,.32,3.16-.23,4.43-.59,1.36-1.86,3.02-3.14,3.36-2.14,.55-3.59-1.15-3.99-3.22-.32-1.65-.24-3.4-.24-5.1,0-17.29,.02-34.59,.04-51.88,0-2.1,0-4.2,0-7.1-5.54,0-10.58,.04-15.61-.02-1.9-.02-3.93,.06-5.65-.57-1.15-.42-2.52-1.99-2.6-3.12-.08-1.14,1.06-2.85,2.14-3.46,1.38-.77,3.24-.92,4.9-.94,13.01-.11,26.03-.12,39.04-.15,.85,0,1.72-.04,2.56,.07,2.6,.32,4.57,1.51,4.5,4.41-.07,2.85-2.34,3.3-4.55,3.39-2.98,.13-5.97,.01-8.95,.09-2.51,.07-5.01,.26-8.09,.43Z"/>
    <path class="cls-1" d="M639.72,348.77c0,9.2,0,17.28,0,25.36,.01,11.09,.04,22.17,.07,33.26,0,1.28,.05,2.56-.01,3.84-.2,3.98-1.34,5.73-3.79,5.46-3.32-.37-3.86-2.97-3.87-5.64-.07-14.07-.07-28.14-.09-42.22,0-6.37,0-12.74,0-19.95-5.75-.04-10.99-.06-16.24-.13-1.91-.03-4.01,.26-5.66-.45-1.22-.52-2.42-2.36-2.56-3.72-.09-.94,1.48-2.37,2.63-3.01,1.02-.56,2.48-.42,3.75-.43,14.49-.02,28.98,0,43.47,0,.43,0,.85,0,1.28,.01,2.45,.11,4.87,.36,5.02,3.58,.11,2.47-1.76,3.86-5.39,4-2.98,.11-5.97,.03-8.95,.03-2.93,0-5.87,0-9.66,0Z"/>
    <path class="cls-1" d="M678.14,378.5c0-9.6,0-19.19,0-28.79,0-1.07-.01-2.13,.03-3.2,.19-4.26,1.44-6.17,3.98-6.13,2.48,.04,3.71,1.87,3.72,6.33,.05,21.53,.02,43.07,.01,64.6,0,.64-.04,1.28-.08,1.92-.15,2.44-1.47,4.29-3.84,4.24-2.39-.05-3.57-2.06-3.74-4.43-.1-1.49-.08-2.98-.08-4.48,0-10.02,0-20.04,0-30.07Z"/>
    <path class="cls-1" d="M1141.85,378.83c0,10.03,0,20.05,0,30.08,0,1.49,.35,3.2-.26,4.41-.66,1.31-2.13,2.7-3.49,3-.83,.19-2.56-1.4-3.06-2.56-.65-1.48-.64-3.32-.65-5-.09-20.05-.13-40.1-.17-60.16,0-1.28-.31-2.77,.23-3.78,.71-1.32,1.97-2.92,3.27-3.22,2.16-.5,3.52,1.18,3.85,3.32,.22,1.46,.18,2.97,.18,4.47,.01,9.81,0,19.63,0,29.44h.1Z"/>
  </g>
</svg>